<?xml version="1.0" encoding="UTF-8" standalone="no"?>
<svg
   width="500"
   zoomAndPan="magnify"
   viewBox="0 0 300 300"
   height="150"
   preserveAspectRatio="xMidYMid meet"
   version="1.0"
   id="svg48"
   sodipodi:docname="d859d8b7-8a73-4563-a784-b0363cc5602a.svg"
   xmlns:inkscape="http://www.inkscape.org/namespaces/inkscape"
   xmlns:sodipodi="http://sodipodi.sourceforge.net/DTD/sodipodi-0.dtd"
   xmlns="http://www.w3.org/2000/svg"
   xmlns:svg="http://www.w3.org/2000/svg">
  <sodipodi:namedview
     id="namedview48"
     pagecolor="#ffffff"
     bordercolor="#000000"
     borderopacity="0.25"
     inkscape:showpageshadow="2"
     inkscape:pageopacity="0.0"
     inkscape:pagecheckerboard="0"
     inkscape:deskcolor="#d1d1d1" />
  <defs
     id="defs1">
    <g
       id="g1" />
  </defs>
  <g
     fill="#000000"
     fill-opacity="1"
     id="g4">
    <g
       transform="translate(1.576333, 54.358403)"
       id="g3">
      <g
         id="g2">
        <path
           d="M 30.765625 -48.078125 L 30.765625 -38.46875 L 20.328125 -38.46875 L 20.328125 0 L 10.171875 0 L 10.171875 -38.46875 L -0.28125 -38.46875 L -0.28125 -48.078125 Z M 30.765625 -48.078125 "
           id="path1" />
      </g>
    </g>
  </g>
  <g
     fill="#000000"
     fill-opacity="1"
     id="g7">
    <g
       transform="translate(32.076778, 54.358403)"
       id="g6">
      <g
         id="g5">
        <path
           d="M 12.84375 -43.34375 C 12.84375 -41.550781 12.335938 -40.175781 11.328125 -39.21875 C 10.328125 -38.257812 9.09375 -37.78125 7.625 -37.78125 C 6.15625 -37.78125 4.914062 -38.257812 3.90625 -39.21875 C 2.90625 -40.175781 2.40625 -41.550781 2.40625 -43.34375 C 2.40625 -45.125 2.90625 -46.492188 3.90625 -47.453125 C 4.914062 -48.421875 6.15625 -48.90625 7.625 -48.90625 C 9.09375 -48.90625 10.328125 -48.421875 11.328125 -47.453125 C 12.335938 -46.492188 12.84375 -45.125 12.84375 -43.34375 Z M 12.015625 -33.375 L 12.015625 0 L 3.234375 0 L 3.234375 -33.375 Z M 12.015625 -33.375 "
           id="path4" />
      </g>
    </g>
  </g>
  <g
     fill="#000000"
     fill-opacity="1"
     id="g10">
    <g
       transform="translate(47.326996, 54.358403)"
       id="g9">
      <g
         id="g8">
        <path
           d="M 11.40625 -42.3125 L 11.40625 -33.375 L 17.796875 -33.375 L 17.796875 -24.859375 L 11.40625 -24.859375 L 11.40625 -12.296875 C 11.40625 -11.242188 11.664062 -10.394531 12.1875 -9.75 C 12.71875 -9.113281 13.507812 -8.796875 14.5625 -8.796875 L 17.796875 -8.796875 L 17.796875 0 L 12.90625 0 C 6.039062 0 2.609375 -3.960938 2.609375 -11.890625 L 2.609375 -42.3125 Z M 11.40625 -42.3125 "
           id="path7" />
      </g>
    </g>
  </g>
  <g
     fill="#000000"
     fill-opacity="1"
     id="g13">
    <g
       transform="translate(66.424121, 54.358403)"
       id="g12">
      <g
         id="g11">
        <path
           d="M 36 -16.6875 C 36 -14.21875 35.597656 -11.914062 34.796875 -9.78125 C 33.992188 -7.65625 32.847656 -5.800781 31.359375 -4.21875 C 29.867188 -2.644531 28.082031 -1.410156 26 -0.515625 C 23.914062 0.378906 21.613281 0.828125 19.09375 0.828125 C 16.625 0.828125 14.347656 0.378906 12.265625 -0.515625 C 10.179688 -1.410156 8.394531 -2.632812 6.90625 -4.1875 C 5.414062 -5.75 4.257812 -7.59375 3.4375 -9.71875 C 2.613281 -11.84375 2.203125 -14.164062 2.203125 -16.6875 C 2.203125 -19.207031 2.613281 -21.539062 3.4375 -23.6875 C 4.257812 -25.84375 5.414062 -27.695312 6.90625 -29.25 C 8.394531 -30.8125 10.179688 -32.023438 12.265625 -32.890625 C 14.347656 -33.765625 16.625 -34.203125 19.09375 -34.203125 C 21.613281 -34.203125 23.914062 -33.753906 26 -32.859375 C 28.082031 -31.972656 29.851562 -30.75 31.3125 -29.1875 C 32.78125 -27.632812 33.925781 -25.78125 34.75 -23.625 C 35.582031 -21.476562 36 -19.164062 36 -16.6875 Z M 19.09375 -7.96875 C 21.5625 -7.96875 23.53125 -8.722656 25 -10.234375 C 26.46875 -11.742188 27.203125 -13.894531 27.203125 -16.6875 C 27.203125 -19.476562 26.46875 -21.628906 25 -23.140625 C 23.53125 -24.660156 21.539062 -25.421875 19.03125 -25.421875 C 16.644531 -25.421875 14.707031 -24.6875 13.21875 -23.21875 C 11.726562 -21.75 10.984375 -19.570312 10.984375 -16.6875 C 10.984375 -13.894531 11.71875 -11.742188 13.1875 -10.234375 C 14.65625 -8.722656 16.625 -7.96875 19.09375 -7.96875 Z M 19.09375 -7.96875 "
           id="path10" />
      </g>
    </g>
  </g>
  <g
     fill="#000000"
     fill-opacity="1"
     id="g16">
    <g
       transform="translate(104.618372, 54.358403)"
       id="g15">
      <g
         id="g14">
        <path
           d="M 11.46875 -48.078125 L 11.46875 -29.46875 L 3.78125 -29.46875 L 3.78125 -48.078125 Z M 11.46875 -48.078125 "
           id="path13" />
      </g>
    </g>
  </g>
  <g
     fill="#000000"
     fill-opacity="1"
     id="g19">
    <g
       transform="translate(119.868589, 54.358403)"
       id="g18">
      <g
         id="g17">
        <path
           d="M 23.359375 -33.375 L 23.359375 -25.140625 L 13.046875 -25.140625 C 12.679688 -25.140625 12.242188 -25.070312 11.734375 -24.9375 C 11.234375 -24.800781 10.984375 -24.363281 10.984375 -23.625 C 10.984375 -23.125 11.375 -22.617188 12.15625 -22.109375 C 12.9375 -21.609375 14.054688 -21.015625 15.515625 -20.328125 C 18.546875 -18.910156 20.90625 -17.429688 22.59375 -15.890625 C 24.289062 -14.359375 25.140625 -12.453125 25.140625 -10.171875 C 25.140625 -8.566406 24.851562 -7.132812 24.28125 -5.875 C 23.707031 -4.613281 22.925781 -3.546875 21.9375 -2.671875 C 20.957031 -1.804688 19.789062 -1.144531 18.4375 -0.6875 C 17.09375 -0.226562 15.664062 0 14.15625 0 L 1.578125 0 L 1.578125 -8.25 L 13.046875 -8.25 C 13.734375 -8.25 14.296875 -8.414062 14.734375 -8.75 C 15.171875 -9.09375 15.390625 -9.539062 15.390625 -10.09375 C 15.390625 -10.738281 15.03125 -11.367188 14.3125 -11.984375 C 13.601562 -12.597656 12.425781 -13.320312 10.78125 -14.15625 C 7.757812 -15.664062 5.523438 -17.101562 4.078125 -18.46875 C 2.640625 -19.84375 1.921875 -21.5625 1.921875 -23.625 C 1.921875 -26.695312 2.859375 -29.085938 4.734375 -30.796875 C 6.617188 -32.515625 9.207031 -33.375 12.5 -33.375 Z M 23.359375 -33.375 "
           id="path16" />
      </g>
    </g>
  </g>
  <g
     fill="#000000"
     fill-opacity="1"
     id="g22">
    <g
       transform="translate(146.590829, 54.358403)"
       id="g21">
      <g
         id="g20" />
    </g>
  </g>
  <g
     fill="#000000"
     fill-opacity="1"
     id="g27">
    <g
       transform="translate(165.687955, 54.358403)"
       id="g24">
      <g
         id="g23">
        <path
           d="M 32.6875 -48.078125 L 32.6875 -38.46875 L 25.078125 -38.46875 C 23.472656 -38.46875 21.9375 -38.054688 20.46875 -37.234375 C 19 -36.410156 17.691406 -35.320312 16.546875 -33.96875 C 15.410156 -32.613281 14.5 -31.066406 13.8125 -29.328125 C 13.125 -27.585938 12.78125 -25.828125 12.78125 -24.046875 C 12.78125 -22.253906 13.125 -20.488281 13.8125 -18.75 C 14.5 -17.007812 15.398438 -15.460938 16.515625 -14.109375 C 17.640625 -12.765625 18.945312 -11.675781 20.4375 -10.84375 C 21.925781 -10.019531 23.472656 -9.609375 25.078125 -9.609375 L 32.6875 -9.609375 L 32.6875 0 L 24.453125 0 C 21.609375 0 18.847656 -0.570312 16.171875 -1.71875 C 13.492188 -2.863281 11.101562 -4.488281 9 -6.59375 C 6.894531 -8.695312 5.210938 -11.222656 3.953125 -14.171875 C 2.691406 -17.128906 2.0625 -20.421875 2.0625 -24.046875 C 2.0625 -27.609375 2.691406 -30.851562 3.953125 -33.78125 C 5.210938 -36.71875 6.882812 -39.25 8.96875 -41.375 C 11.050781 -43.507812 13.441406 -45.160156 16.140625 -46.328125 C 18.835938 -47.492188 21.65625 -48.078125 24.59375 -48.078125 Z M 32.6875 -48.078125 "
           id="path22" />
      </g>
    </g>
    <g
       transform="translate(200.035298, 54.358403)"
       id="g26">
      <g
         id="g25">
        <path
           d="M 35.03125 0 L 26.234375 0 L 26.234375 -18.953125 C 26.234375 -20.785156 25.582031 -22.320312 24.28125 -23.5625 C 22.976562 -24.800781 21.019531 -25.421875 18.40625 -25.421875 C 17.351562 -25.421875 16.378906 -25.191406 15.484375 -24.734375 C 14.597656 -24.273438 13.820312 -23.644531 13.15625 -22.84375 C 12.488281 -22.039062 11.957031 -21.113281 11.5625 -20.0625 C 11.175781 -19.007812 10.984375 -17.882812 10.984375 -16.6875 C 10.984375 -15.59375 11.175781 -14.550781 11.5625 -13.5625 C 11.957031 -12.582031 12.5 -11.734375 13.1875 -11.015625 C 13.875 -10.304688 14.6875 -9.734375 15.625 -9.296875 C 16.5625 -8.867188 17.582031 -8.65625 18.6875 -8.65625 C 19.644531 -8.65625 20.5 -8.742188 21.25 -8.921875 C 22.007812 -9.109375 22.828125 -9.363281 23.703125 -9.6875 L 23.703125 -0.546875 C 22.554688 -0.316406 21.546875 -0.125 20.671875 0.03125 C 19.804688 0.195312 18.960938 0.28125 18.140625 0.28125 C 15.753906 0.28125 13.585938 -0.128906 11.640625 -0.953125 C 9.691406 -1.785156 8.019531 -2.929688 6.625 -4.390625 C 5.226562 -5.859375 4.140625 -7.609375 3.359375 -9.640625 C 2.585938 -11.679688 2.203125 -13.914062 2.203125 -16.34375 C 2.203125 -18.90625 2.613281 -21.285156 3.4375 -23.484375 C 4.257812 -25.679688 5.390625 -27.570312 6.828125 -29.15625 C 8.273438 -30.738281 9.992188 -31.972656 11.984375 -32.859375 C 13.972656 -33.753906 16.160156 -34.203125 18.546875 -34.203125 C 21.066406 -34.203125 23.332031 -33.820312 25.34375 -33.0625 C 27.363281 -32.3125 29.09375 -31.269531 30.53125 -29.9375 C 31.96875 -28.613281 33.078125 -27.054688 33.859375 -25.265625 C 34.640625 -23.484375 35.03125 -21.5625 35.03125 -19.5 Z M 35.03125 0 "
           id="path24" />
      </g>
    </g>
  </g>
  <g
     fill="#000000"
     fill-opacity="1"
     id="g30">
    <g
       transform="translate(238.229549, 54.358403)"
       id="g29">
      <g
         id="g28">
        <path
           d="M 18.484375 -39.296875 L 15.109375 -39.296875 C 14.054688 -39.296875 13.207031 -39.050781 12.5625 -38.5625 C 11.925781 -38.082031 11.609375 -37.226562 11.609375 -36 L 11.609375 -33.375 L 18.484375 -33.375 L 18.484375 -24.859375 L 11.609375 -24.859375 L 11.609375 0 L 2.8125 0 L 2.8125 -33.59375 C 2.8125 -38.71875 3.910156 -42.410156 6.109375 -44.671875 C 8.304688 -46.941406 11.351562 -48.078125 15.25 -48.078125 L 18.484375 -48.078125 Z M 18.484375 -39.296875 "
           id="path27" />
      </g>
    </g>
  </g>
  <g
     fill="#000000"
     fill-opacity="1"
     id="g33">
    <g
       transform="translate(257.326685, 54.358403)"
       id="g32">
      <g
         id="g31">
        <path
           d="M 17.796875 -11.609375 L 13.53125 -17.171875 L 22.25 -23.90625 C 21.789062 -24.40625 21.179688 -24.78125 20.421875 -25.03125 C 19.671875 -25.289062 18.835938 -25.421875 17.921875 -25.421875 C 16.828125 -25.421875 15.820312 -25.191406 14.90625 -24.734375 C 13.988281 -24.273438 13.195312 -23.65625 12.53125 -22.875 C 11.875 -22.09375 11.359375 -21.175781 10.984375 -20.125 C 10.617188 -19.070312 10.4375 -17.925781 10.4375 -16.6875 C 10.4375 -15.539062 10.65625 -14.441406 11.09375 -13.390625 C 11.53125 -12.335938 12.125 -11.410156 12.875 -10.609375 C 13.632812 -9.804688 14.53125 -9.164062 15.5625 -8.6875 C 16.59375 -8.207031 17.703125 -7.96875 18.890625 -7.96875 C 21.085938 -7.96875 23.007812 -8.597656 24.65625 -9.859375 C 26.300781 -11.117188 27.3125 -12.867188 27.6875 -15.109375 L 36.546875 -14.15625 C 36.085938 -11.8125 35.316406 -9.722656 34.234375 -7.890625 C 33.160156 -6.066406 31.84375 -4.5 30.28125 -3.1875 C 28.726562 -1.882812 26.957031 -0.890625 24.96875 -0.203125 C 22.976562 0.484375 20.835938 0.828125 18.546875 0.828125 C 16.078125 0.828125 13.796875 0.378906 11.703125 -0.515625 C 9.617188 -1.410156 7.832031 -2.632812 6.34375 -4.1875 C 4.863281 -5.75 3.710938 -7.59375 2.890625 -9.71875 C 2.066406 -11.84375 1.65625 -14.164062 1.65625 -16.6875 C 1.65625 -19.207031 2.066406 -21.539062 2.890625 -23.6875 C 3.710938 -25.84375 4.878906 -27.695312 6.390625 -29.25 C 7.898438 -30.8125 9.6875 -32.023438 11.75 -32.890625 C 13.8125 -33.765625 16.078125 -34.203125 18.546875 -34.203125 C 22.390625 -34.203125 25.695312 -33.351562 28.46875 -31.65625 C 31.238281 -29.96875 33.332031 -27.519531 34.75 -24.3125 Z M 17.796875 -11.609375 "
           id="path30" />
      </g>
    </g>
  </g>
  <g
     fill="#000000"
     fill-opacity="1"
     id="g36">
    <g
       transform="translate(-1.274956, 97.3652)"
       id="g35">
      <g
         id="g34">
        <path
           d="M 2.859375 -1 C 7.484375 -1.507812 11.488281 -2.628906 14.875 -4.359375 C 18.269531 -6.097656 20.859375 -8.335938 22.640625 -11.078125 C 22.640625 -11.171875 22.660156 -11.222656 22.703125 -11.234375 C 22.753906 -11.253906 22.796875 -11.265625 22.828125 -11.265625 L 3.109375 -11.265625 L 3.109375 -15.28125 L 24.75 -15.28125 C 25 -16.175781 25.15625 -16.941406 25.21875 -17.578125 C 25.28125 -18.210938 25.328125 -18.707031 25.359375 -19.0625 L 25.359375 -31.859375 L 29.140625 -31.859375 L 29.140625 -19.0625 C 29.140625 -17.945312 28.992188 -16.6875 28.703125 -15.28125 L 44.46875 -15.28125 L 44.46875 -11.265625 L 27.28125 -11.265625 C 26.707031 -10.441406 26.273438 -9.742188 25.984375 -9.171875 C 23.628906 -5.472656 20.394531 -2.675781 16.28125 -0.78125 C 12.175781 1.101562 7.847656 2.367188 3.296875 3.015625 Z M 28.328125 -8.734375 C 28.960938 -8.453125 30.242188 -7.878906 32.171875 -7.015625 C 34.097656 -6.160156 36.242188 -5.09375 38.609375 -3.8125 C 40.984375 -2.539062 43.015625 -1.253906 44.703125 0.046875 L 42.375 3.203125 C 40.75 1.960938 38.785156 0.710938 36.484375 -0.546875 C 34.191406 -1.804688 32.039062 -2.894531 30.03125 -3.8125 C 28.03125 -4.738281 26.96875 -5.203125 26.84375 -5.203125 Z M 20.734375 -22.40625 C 20.316406 -21.988281 19.753906 -21.613281 19.046875 -21.28125 C 18.347656 -20.945312 17.492188 -20.78125 16.484375 -20.78125 C 16.160156 -20.78125 15.617188 -20.84375 14.859375 -20.96875 C 16.285156 -20.207031 17.269531 -19.570312 17.8125 -19.0625 L 15.71875 -15.90625 C 14.882812 -16.570312 13.789062 -17.210938 12.4375 -17.828125 C 11.082031 -18.453125 9.289062 -19.226562 7.0625 -20.15625 L 5.59375 -20.734375 L 6.875 -24.3125 C 7.382812 -24.125 7.878906 -23.914062 8.359375 -23.6875 C 10.910156 -22.664062 12.867188 -21.820312 14.234375 -21.15625 C 15.054688 -21.15625 15.878906 -21.273438 16.703125 -21.515625 C 17.535156 -21.753906 17.90625 -22.273438 17.8125 -23.078125 C 17.8125 -23.109375 17.796875 -23.203125 17.765625 -23.359375 C 17.734375 -23.515625 17.65625 -23.695312 17.53125 -23.90625 C 17.40625 -24.113281 17.210938 -24.3125 16.953125 -24.5 C 15.554688 -25.238281 14.066406 -25.941406 12.484375 -26.609375 C 10.910156 -27.273438 9.882812 -27.703125 9.40625 -27.890625 L 10.84375 -31.484375 C 10.9375 -31.484375 11.585938 -31.234375 12.796875 -30.734375 C 14.003906 -30.242188 15.34375 -29.644531 16.8125 -28.9375 C 18.28125 -28.238281 19.585938 -27.539062 20.734375 -26.84375 C 20.796875 -26.8125 20.90625 -26.707031 21.0625 -26.53125 C 21.21875 -26.351562 21.375 -26.113281 21.53125 -25.8125 C 21.695312 -25.507812 21.78125 -25.171875 21.78125 -24.796875 C 21.78125 -24.023438 21.429688 -23.226562 20.734375 -22.40625 Z M 20.734375 -22.40625 "
           id="path33" />
      </g>
    </g>
  </g>
  <g
     fill="#000000"
     fill-opacity="1"
     id="g39">
    <g
       transform="translate(46.489248, 97.3652)"
       id="g38">
      <g
         id="g37">
        <path
           d="M 2.859375 -1 C 7.484375 -1.507812 11.488281 -2.628906 14.875 -4.359375 C 18.269531 -6.097656 20.859375 -8.335938 22.640625 -11.078125 C 22.640625 -11.171875 22.660156 -11.222656 22.703125 -11.234375 C 22.753906 -11.253906 22.796875 -11.265625 22.828125 -11.265625 L 3.109375 -11.265625 L 3.109375 -15.28125 L 24.75 -15.28125 C 25 -16.175781 25.15625 -16.941406 25.21875 -17.578125 C 25.28125 -18.210938 25.328125 -18.707031 25.359375 -19.0625 L 25.359375 -31.859375 L 29.140625 -31.859375 L 29.140625 -19.0625 C 29.140625 -17.945312 28.992188 -16.6875 28.703125 -15.28125 L 44.46875 -15.28125 L 44.46875 -11.265625 L 27.28125 -11.265625 C 26.707031 -10.441406 26.273438 -9.742188 25.984375 -9.171875 C 23.628906 -5.472656 20.394531 -2.675781 16.28125 -0.78125 C 12.175781 1.101562 7.847656 2.367188 3.296875 3.015625 Z M 28.328125 -8.734375 C 28.960938 -8.453125 30.242188 -7.878906 32.171875 -7.015625 C 34.097656 -6.160156 36.242188 -5.09375 38.609375 -3.8125 C 40.984375 -2.539062 43.015625 -1.253906 44.703125 0.046875 L 42.375 3.203125 C 40.75 1.960938 38.785156 0.710938 36.484375 -0.546875 C 34.191406 -1.804688 32.039062 -2.894531 30.03125 -3.8125 C 28.03125 -4.738281 26.96875 -5.203125 26.84375 -5.203125 Z M 20.734375 -22.40625 C 20.316406 -21.988281 19.753906 -21.613281 19.046875 -21.28125 C 18.347656 -20.945312 17.492188 -20.78125 16.484375 -20.78125 C 16.160156 -20.78125 15.617188 -20.84375 14.859375 -20.96875 C 16.285156 -20.207031 17.269531 -19.570312 17.8125 -19.0625 L 15.71875 -15.90625 C 14.882812 -16.570312 13.789062 -17.210938 12.4375 -17.828125 C 11.082031 -18.453125 9.289062 -19.226562 7.0625 -20.15625 L 5.59375 -20.734375 L 6.875 -24.3125 C 7.382812 -24.125 7.878906 -23.914062 8.359375 -23.6875 C 10.910156 -22.664062 12.867188 -21.820312 14.234375 -21.15625 C 15.054688 -21.15625 15.878906 -21.273438 16.703125 -21.515625 C 17.535156 -21.753906 17.90625 -22.273438 17.8125 -23.078125 C 17.8125 -23.109375 17.796875 -23.203125 17.765625 -23.359375 C 17.734375 -23.515625 17.65625 -23.695312 17.53125 -23.90625 C 17.40625 -24.113281 17.210938 -24.3125 16.953125 -24.5 C 15.554688 -25.238281 14.066406 -25.941406 12.484375 -26.609375 C 10.910156 -27.273438 9.882812 -27.703125 9.40625 -27.890625 L 10.84375 -31.484375 C 10.9375 -31.484375 11.585938 -31.234375 12.796875 -30.734375 C 14.003906 -30.242188 15.34375 -29.644531 16.8125 -28.9375 C 18.28125 -28.238281 19.585938 -27.539062 20.734375 -26.84375 C 20.796875 -26.8125 20.90625 -26.707031 21.0625 -26.53125 C 21.21875 -26.351562 21.375 -26.113281 21.53125 -25.8125 C 21.695312 -25.507812 21.78125 -25.171875 21.78125 -24.796875 C 21.78125 -24.023438 21.429688 -23.226562 20.734375 -22.40625 Z M 20.734375 -22.40625 "
           id="path36" />
      </g>
    </g>
  </g>
  <g
     fill="#000000"
     fill-opacity="1"
     id="g42">
    <g
       transform="translate(94.253453, 97.3652)"
       id="g41">
      <g
         id="g40">
        <path
           d="M 25.453125 3.015625 C 24.660156 3.015625 23.910156 2.820312 23.203125 2.4375 C 22.503906 2.050781 21.9375 1.539062 21.5 0.90625 L 20.4375 -0.578125 L 23.171875 -2.671875 L 24.40625 -1 C 24.59375 -0.65625 25 -0.488281 25.625 -0.5 C 26.25 -0.519531 26.65625 -0.816406 26.84375 -1.390625 C 27.03125 -1.960938 27.125 -2.597656 27.125 -3.296875 L 27.125 -20.96875 L 22.546875 -20.96875 L 22.546875 -15.46875 C 22.546875 -11.007812 21.75 -7.125 20.15625 -3.8125 C 18.5625 -0.507812 16.476562 1.828125 13.90625 3.203125 L 12.234375 0.046875 C 14.234375 -1.003906 15.851562 -2.898438 17.09375 -5.640625 C 18.34375 -8.378906 18.96875 -11.65625 18.96875 -15.46875 L 18.96875 -20.96875 L 15.8125 -20.96875 L 15.8125 -24.5 L 18.96875 -24.5 L 18.96875 -31.859375 L 22.546875 -31.859375 L 22.546875 -24.5 L 30.71875 -24.5 L 30.71875 -3.296875 C 30.71875 -2.878906 30.648438 -2.304688 30.515625 -1.578125 C 30.390625 -0.847656 30.101562 -0.0820312 29.65625 0.71875 C 29.25 1.445312 28.691406 2.007812 27.984375 2.40625 C 27.285156 2.8125 26.523438 3.015625 25.703125 3.015625 Z M 6.78125 -6.453125 L 11.171875 -6.453125 L 11.171875 -26.421875 L 6.78125 -26.421875 Z M 14.765625 -30 L 14.765625 -2.859375 L 3.203125 -2.859375 L 3.203125 -30 Z M 35.53125 -2.25 L 40.796875 -2.25 L 40.796875 -24.125 L 35.53125 -24.125 Z M 44.375 -27.65625 L 44.375 1.34375 L 32 1.34375 L 32 -27.65625 Z M 44.375 -27.65625 "
           id="path39" />
      </g>
    </g>
  </g>
  <g
     fill="#000000"
     fill-opacity="1"
     id="g45">
    <g
       transform="translate(142.017658, 97.3652)"
       id="g44">
      <g
         id="g43">
        <path
           d="M 15.71875 -28.609375 L 15.71875 -3.203125 L 2.671875 -3.203125 L 2.671875 -28.609375 Z M 6.25 -6.78125 L 12.125 -6.78125 L 12.125 -25.03125 L 6.25 -25.03125 Z M 36.921875 -26.078125 L 44.46875 -26.078125 L 44.46875 -22.546875 L 36.921875 -22.546875 L 36.921875 -18.109375 L 44.09375 -18.109375 L 44.09375 -14.515625 L 36.921875 -14.515625 L 36.921875 -9.703125 L 44.90625 -9.703125 L 44.90625 -6.109375 L 36.921875 -6.109375 L 36.921875 3.109375 L 33.34375 3.109375 L 33.34375 -31.765625 L 36.921875 -31.765625 Z M 28.328125 3.109375 L 24.75 3.109375 L 24.75 -6.109375 L 16.953125 -6.109375 L 16.953125 -9.703125 L 24.75 -9.703125 L 24.75 -14.515625 L 17.8125 -14.515625 L 17.8125 -18.109375 L 24.75 -18.109375 L 24.75 -22.546875 L 17.578125 -22.546875 L 17.578125 -26.078125 L 24.75 -26.078125 L 24.75 -31.765625 L 28.328125 -31.765625 Z M 28.328125 3.109375 "
           id="path42" />
      </g>
    </g>
  </g>
  <g
     fill="#000000"
     fill-opacity="1"
     id="g48">
    <g
       transform="translate(189.781863, 97.3652)"
       id="g47">
      <g
         id="g46">
        <path
           d="M 10.75 -24.640625 L 39.734375 -24.640625 L 39.734375 -27.5625 L 10.75 -27.5625 Z M 32.625 -15.1875 L 33.25 -16.4375 L 24.84375 -16.4375 C 23.851562 -15.445312 22.941406 -14.601562 22.109375 -13.90625 L 34.296875 -14.140625 Z M 43.328125 -31.140625 L 43.328125 -21.0625 L 10.75 -21.0625 L 10.75 -19.78125 L 44.375 -19.78125 L 44.375 -16.4375 L 37.015625 -16.4375 C 39.785156 -14.613281 42.03125 -12.925781 43.75 -11.375 L 41.453125 -8.890625 C 41.046875 -9.296875 40.457031 -9.785156 39.6875 -10.359375 L 38.921875 -10.984375 C 33.316406 -10.828125 30.3125 -10.75 29.90625 -10.75 L 29.90625 -8.453125 L 42.078125 -8.453125 L 42.078125 -5.0625 L 29.90625 -5.0625 L 29.90625 -1.90625 L 45.421875 -1.90625 L 45.421875 1.4375 L 10.75 1.4375 L 10.75 -1.90625 L 26.3125 -1.90625 L 26.3125 -5.0625 L 14.515625 -5.0625 L 14.515625 -8.453125 L 26.3125 -8.453125 L 26.3125 -10.75 L 16.625 -10.5625 C 16.46875 -10.457031 16.242188 -10.347656 15.953125 -10.234375 C 15.671875 -10.128906 15.414062 -10.03125 15.1875 -9.9375 L 13.90625 -12.84375 C 15.8125 -13.894531 17.703125 -15.09375 19.578125 -16.4375 L 10.75 -16.4375 L 10.75 -13.90625 C 10.75 -11.988281 10.359375 -9.375 9.578125 -6.0625 C 8.796875 -2.75 7.082031 0.0976562 4.4375 2.484375 L 2.15625 -0.234375 C 3.644531 -1.609375 4.753906 -3.304688 5.484375 -5.328125 C 6.222656 -7.347656 6.671875 -9.070312 6.828125 -10.5 C 6.984375 -11.9375 7.097656 -13.070312 7.171875 -13.90625 L 7.171875 -31.140625 Z M 43.328125 -31.140625 "
           id="path45" />
      </g>
    </g>
  </g>
</svg>
