<?xml version="1.0" encoding="UTF-8"?>
<svg version="1.1" xmlns="http://www.w3.org/2000/svg" width="600" height="150">
<path d="M0 0 C5.96153115 3.65257926 11.65180413 9.77008117 13.5625 16.5625 C13.0675 19.0375 13.0675 19.0375 12.5625 21.5625 C7.2825 21.5625 2.0025 21.5625 -3.4375 21.5625 C-4.0975 20.2425 -4.7575 18.9225 -5.4375 17.5625 C-9.11289753 15.04980785 -12.1326161 15.41766456 -16.37890625 16.03125 C-18.5783577 16.44637624 -18.5783577 16.44637624 -20.4375 18.1875 C-22.30324099 22.61863485 -22.73205449 26.23700481 -21.6875 30.9375 C-21.275 31.80375 -20.8625 32.67 -20.4375 33.5625 C-16.38585403 34.91304866 -12.67374482 35.10737932 -8.4375 34.5625 C-4.2364795 31.76181967 -4.13713205 29.66139616 -2.4375 24.5625 C2.8425 24.5625 8.1225 24.5625 13.5625 24.5625 C15.12606699 29.25320096 13.26350775 33.05235913 11.5625 37.5625 C8.05855388 44.06982852 2.71018582 49.36013182 -4.4375 51.5625 C-13.41818539 52.50879309 -21.81281041 52.89958413 -29.41796875 47.40625 C-35.12815687 42.19308019 -38.9588728 36.70774235 -39.6875 28.875 C-40.05402604 19.89511198 -38.42047831 12.44632624 -32.25 5.6875 C-23.61803555 -1.9994915 -10.94069457 -4.69195795 0 0 Z " fill="#000000" transform="translate(271.4375,19.4375)"/>
<path d="M0 0 C16.17 0 32.34 0 49 0 C49 4.95 49 9.9 49 15 C49.495 15.495 49.495 15.495 50 16 C50.04063832 17.66617115 50.042721 19.33388095 50 21 C47.03 21.495 47.03 21.495 44 22 C46.475 23.98 46.475 23.98 49 26 C48.34 29.3 47.68 32.6 47 36 C41.72 36 36.44 36 31 36 C31 36.99 31 37.98 31 39 C37.93 39 44.86 39 52 39 C52 40.98 52 42.96 52 45 C36.49 45 20.98 45 5 45 C5 43.02 5 41.04 5 39 C14.9 38.505 14.9 38.505 25 38 C25 37.34 25 36.68 25 36 C20.05 36 15.1 36 10 36 C10 34.35 10 32.7 10 31 C14.95 31 19.9 31 25 31 C25 30.34 25 29.68 25 29 C20.38 29.33 15.76 29.66 11 30 C9 27 9 27 9 24 C10.32 23.34 11.64 22.68 13 22 C10.69 21.67 8.38 21.34 6 21 C6.04640625 21.59425781 6.0928125 22.18851563 6.140625 22.80078125 C6.47855624 30.56113085 5.21838481 38.29511516 -0.015625 44.3203125 C-2 46 -2 46 -4 46 C-6 43 -6 43 -6 40 C-5.34 40 -4.68 40 -4 40 C-0.73578978 31.54003455 -0.46416989 23.3623001 -0.3125 14.375 C-0.209375 9.63125 -0.10625 4.8875 0 0 Z M6 6 C6 7.32 6 8.64 6 10 C18.21 10 30.42 10 43 10 C43 8.68 43 7.36 43 6 C30.79 6 18.58 6 6 6 Z M22 23 C25.96 23 29.92 23 34 23 C34 22.34 34 21.68 34 21 C32.37536158 20.94604522 30.75021459 20.90722805 29.125 20.875 C28.22007812 20.85179688 27.31515625 20.82859375 26.3828125 20.8046875 C23.81193006 20.75675164 23.81193006 20.75675164 22 23 Z M31 29 C31 29.66 31 30.32 31 31 C35.62 31 40.24 31 45 31 C43.1371051 28.69939466 43.1371051 28.69939466 40.1796875 28.8046875 C39.08914063 28.82789062 37.99859375 28.85109375 36.875 28.875 C35.23144531 28.90207031 35.23144531 28.90207031 33.5546875 28.9296875 C32.71164062 28.95289062 31.86859375 28.97609375 31 29 Z " fill="#000000" transform="translate(284,82)"/>
<path d="M0 0 C1.98 0 3.96 0 6 0 C6 3.3 6 6.6 6 10 C9.63 10 13.26 10 17 10 C17 8.68 17 7.36 17 6 C22.94 6 28.88 6 35 6 C35 18.87 35 31.74 35 45 C29.06 45 23.12 45 17 45 C16.67 44.34 16.34 43.68 16 43 C15.2265625 44.0209375 15.2265625 44.0209375 14.4375 45.0625 C12 47 12 47 8.5 47 C4.80841266 45.94526076 3.37477776 44.94472442 1 42 C-0.65 43.65 -2.3 45.3 -4 47 C-4.99 46.67 -5.98 46.34 -7 46 C-7.33 44.35 -7.66 42.7 -8 41 C-7.01 40.505 -7.01 40.505 -6 40 C-12.93 39.505 -12.93 39.505 -20 39 C-20 27.12 -20 15.24 -20 3 C-14.72 3 -9.44 3 -4 3 C-4 5.31 -4 7.62 -4 10 C-2.68 10 -1.36 10 0 10 C0 6.7 0 3.4 0 0 Z M-14 8 C-14 16.58 -14 25.16 -14 34 C-12.68 34 -11.36 34 -10 34 C-10 25.42 -10 16.84 -10 8 C-11.32 8 -12.64 8 -14 8 Z M17 11 C17 20.57 17 30.14 17 40 C17.33 40 17.66 40 18 40 C18 30.43 18 20.86 18 11 C17.67 11 17.34 11 17 11 Z M23 11 C23 20.24 23 29.48 23 39 C24.98 39 26.96 39 29 39 C29 29.76 29 20.52 29 11 C27.02 11 25.04 11 23 11 Z M-4 15 C-4 22.59 -4 30.18 -4 38 C0.27700921 33.72299079 0.35682919 27.89067244 0.625 22.125 C0.68300781 21.09246094 0.68300781 21.09246094 0.7421875 20.0390625 C0.83548166 18.35976754 0.91878238 16.67992233 1 15 C-0.65 15 -2.3 15 -4 15 Z M6 15 C5.94392578 16.57587891 5.94392578 16.57587891 5.88671875 18.18359375 C5.54506241 25.96113653 4.99337752 32.71177647 2 40 C3.98 39.67 5.96 39.34 8 39 C8 39.66 8 40.32 8 41 C8.99 41 9.98 41 11 41 C11 32.42 11 23.84 11 15 C9.35 15 7.7 15 6 15 Z " fill="#000000" transform="translate(175,82)"/>
<path d="M0 0 C5.05856946 2.88197384 8.08247007 6.28896898 9.875 11.890625 C11.07484539 17.03754796 10.96927315 22.11745868 10.875 27.375 C10.86597656 28.34050781 10.85695313 29.30601563 10.84765625 30.30078125 C10.82430791 32.65896326 10.78844539 35.0170158 10.75 37.375 C5.8 37.375 0.85 37.375 -4.25 37.375 C-4.29898437 36.04984375 -4.34796875 34.7246875 -4.3984375 33.359375 C-4.47348318 31.61456283 -4.54903024 29.86977218 -4.625 28.125 C-4.6559375 27.25230469 -4.686875 26.37960938 -4.71875 25.48046875 C-4.75742187 24.63613281 -4.79609375 23.79179688 -4.8359375 22.921875 C-4.88306885 21.75930176 -4.88306885 21.75930176 -4.93115234 20.57324219 C-5.28026506 18.16634258 -6.05551104 16.47897705 -7.25 14.375 C-8.9 14.705 -10.55 15.035 -12.25 15.375 C-12.58 17.685 -12.91 19.995 -13.25 22.375 C-10.61 22.375 -7.97 22.375 -5.25 22.375 C-5.22314905 24.85423801 -5.20323453 27.3331884 -5.1875 29.8125 C-5.17912109 30.51955078 -5.17074219 31.22660156 -5.16210938 31.95507812 C-5.15346412 33.76193559 -5.19779989 35.56887603 -5.25 37.375 C-6.25 38.375 -6.25 38.375 -9.375 38.625 C-15.77428995 38.21214258 -20.61364492 35.75377979 -25.25 31.375 C-29.04488824 25.95373109 -29.9285029 20.96264629 -29.25 14.375 C-27.0767525 7.62649459 -23.61830612 3.54129831 -17.5 0.0625 C-11.5472258 -2.67890917 -5.98033791 -2.67541433 0 0 Z " fill="#000000" transform="translate(317.25,32.625)"/>
<path d="M0 0 C12.87 0 25.74 0 39 0 C39 5.28 39 10.56 39 16 C35.37 16.33 31.74 16.66 28 17 C28.00785522 18.53708618 28.00785522 18.53708618 28.01586914 20.10522461 C28.03391969 23.89395276 28.0454322 27.68267709 28.05493164 31.47143555 C28.05997174 33.11369464 28.06680378 34.75594923 28.07543945 36.39819336 C28.08751926 38.75375479 28.09323139 41.10925709 28.09765625 43.46484375 C28.10281754 44.20339096 28.10797882 44.94193817 28.11329651 45.7028656 C28.1134925 47.46898088 28.06194719 49.23497146 28 51 C27.67 51.33 27.34 51.66 27 52 C21.72 52 16.44 52 11 52 C11 40.12 11 28.24 11 16 C7.37 16 3.74 16 0 16 C0 10.72 0 5.44 0 0 Z " fill="#000000" transform="translate(29,18)"/>
<path d="M0 0 C5.05347793 2.83880633 8.53583168 6.99911535 10.75 12.375 C11.67470669 19.18862823 11.4481386 25.03726773 7.31640625 30.6875 C3.61418639 34.67592639 -0.68616449 37.94621506 -6.23046875 38.61328125 C-13.01575035 38.84145886 -17.90739274 37.3692646 -23.01171875 32.796875 C-27.07499578 28.42860623 -29.07304051 24.2893439 -29.34765625 18.21484375 C-29.07697872 11.90264379 -26.61492928 7.84096931 -22.25 3.375 C-15.70399512 -2.06951368 -7.84830087 -3.58907117 0 0 Z M-11.25 13.375 C-13.56563087 15.26000271 -13.56563087 15.26000271 -13.5 18.375 C-13.56563087 21.48999729 -13.56563087 21.48999729 -11.25 23.375 C-8.15073181 23.05301034 -8.15073181 23.05301034 -5.25 22.375 C-4.48283149 19.52421909 -4.48283149 19.52421909 -4.25 16.375 C-5.31345052 14.39470318 -5.31345052 14.39470318 -7.25 13.375 C-8.57 13.375 -9.89 13.375 -11.25 13.375 Z " fill="#000000" transform="translate(144.25,32.625)"/>
<path d="M0 0 C5.34967519 2.9638672 8.08212025 6.9142405 10.8125 12.375 C10.8125 15.345 10.8125 18.315 10.8125 21.375 C3.5525 21.375 -3.7075 21.375 -11.1875 21.375 C-11.1875 18.735 -11.1875 16.095 -11.1875 13.375 C-9.2075 13.045 -7.2275 12.715 -5.1875 12.375 C-7.6625 11.88 -7.6625 11.88 -10.1875 11.375 C-12.64561625 15.06217438 -12.49868164 17.01845704 -12.1875 21.375 C-11.5275 22.365 -10.8675 23.355 -10.1875 24.375 C-6.7225 23.88 -6.7225 23.88 -3.1875 23.375 C-1.9876722 24.80222659 -0.8029424 26.24215776 0.375 27.6875 C1.03628906 28.48800781 1.69757813 29.28851563 2.37890625 30.11328125 C2.85199219 30.85964844 3.32507813 31.60601562 3.8125 32.375 C2.8125 35.375 2.8125 35.375 -0.1875 37.0625 C-5.24151673 39.00555756 -10.1748178 39.33235144 -15.36328125 37.68359375 C-21.47676583 34.93195003 -25.59969669 30.61948191 -28.1875 24.375 C-29.1192938 18.18394693 -28.98370677 12.77580048 -25.625 7.375 C-19.49174049 -0.64765225 -9.46950418 -4.32225475 0 0 Z " fill="#000000" transform="translate(386.1875,32.625)"/>
<path d="M0 0 C1.98 0 3.96 0 6 0 C6 15.51 6 31.02 6 47 C4.02 47 2.04 47 0 47 C0 43.04 0 39.08 0 35 C-3.3 35 -6.6 35 -10 35 C-10.33 36.32 -10.66 37.64 -11 39 C-16.94 39 -22.88 39 -29 39 C-29 27.45 -29 15.9 -29 4 C-22.73 4 -16.46 4 -10 4 C-10 12.25 -10 20.5 -10 29 C-6.7 29 -3.4 29 0 29 C0 27.02 0 25.04 0 23 C-2.97 23 -5.94 23 -9 23 C-9 21.35 -9 19.7 -9 18 C-6.03 18 -3.06 18 0 18 C0 16.35 0 14.7 0 13 C-2.97 13 -5.94 13 -9 13 C-9 11.02 -9 9.04 -9 7 C-6.03 7 -3.06 7 0 7 C0 4.69 0 2.38 0 0 Z M-23 10 C-23 17.59 -23 25.18 -23 33 C-20.69 33 -18.38 33 -16 33 C-16 25.41 -16 17.82 -16 10 C-18.31 10 -20.62 10 -23 10 Z " fill="#000000" transform="translate(245,82)"/>
<path d="M0 0 C5.47932789 1.54545146 10.11429181 4.15543212 15 7 C15.1484375 9.375 15.1484375 9.375 15 12 C13.36739286 13.37482707 11.69774938 14.70647667 10 16 C8.66701026 18.61818456 8.66701026 18.61818456 8 21 C11.3 21.33 14.6 21.66 18 22 C18 14.74 18 7.48 18 0 C20.31 0 22.62 0 25 0 C25 6.93 25 13.86 25 21 C31.6 21.33 38.2 21.66 45 22 C45 23.98 45 25.96 45 28 C44.33991943 27.98839844 43.67983887 27.97679688 42.99975586 27.96484375 C39.97779044 27.93517248 36.95940595 27.96709358 33.9375 28 C32.89916016 27.98066406 31.86082031 27.96132812 30.79101562 27.94140625 C24.87033103 28.00791945 24.87033103 28.00791945 19.80615234 30.75097656 C17.94679382 32.83805658 17.94679382 32.83805658 16.42895508 35.01660156 C11.48982293 41.87214736 2.52986317 44.95662959 -5.484375 46.46875 C-7.31655591 46.70264544 -9.15818794 46.86099532 -11 47 C-11 44.69 -11 42.38 -11 40 C-10.01 39.78085938 -9.02 39.56171875 -8 39.3359375 C0.38371609 37.36361047 6.76012713 35.23987287 13 29 C5.08 28.67 -2.84 28.34 -11 28 C-11 26.02 -11 24.04 -11 22 C-5.72 21.67 -0.44 21.34 5 21 C1.04 19.35 -2.92 17.7 -7 16 C-6.67 14.02 -6.34 12.04 -6 10 C-1.79568804 10.60061599 1.97935101 11.65978367 6 13 C6.99 13 7.98 13 9 13 C6.81482901 10.59424393 4.74080329 9.20464419 1.8125 7.8125 C1.09707031 7.46832031 0.38164063 7.12414062 -0.35546875 6.76953125 C-1.16951172 6.38861328 -1.16951172 6.38861328 -2 6 C-1.125 1.125 -1.125 1.125 0 0 Z " fill="#000000" transform="translate(40,82)"/>
<path d="M0 0 C11.42857143 3.42857143 11.42857143 3.42857143 15 7 C15.375 9.3125 15.375 9.3125 15 12 C13.36739286 13.37482707 11.69774938 14.70647667 10 16 C8.66701026 18.61818456 8.66701026 18.61818456 8 21 C11.3 21.33 14.6 21.66 18 22 C18.33 14.74 18.66 7.48 19 0 C20.98 0 22.96 0 25 0 C25 6.93 25 13.86 25 21 C31.6 21.33 38.2 21.66 45 22 C45 23.98 45 25.96 45 28 C44.00202393 27.98259766 44.00202393 27.98259766 42.98388672 27.96484375 C39.94637878 27.93522501 36.91244758 27.96706382 33.875 28 C32.82828125 27.98066406 31.7815625 27.96132812 30.703125 27.94140625 C24.90698824 27.93649916 24.90698824 27.93649916 20.0793457 30.73339844 C18.5207903 32.83366088 18.5207903 32.83366088 17.20019531 35.04882812 C12.59417466 42.53689099 0.96478777 45.10096224 -7 47 C-7.99 47 -8.98 47 -10 47 C-10.33 44.69 -10.66 42.38 -11 40 C-10.02160156 39.78085938 -9.04320313 39.56171875 -8.03515625 39.3359375 C0.25561411 37.3695504 7.77176898 35.22823102 14 29 C13.27820557 28.97494385 12.55641113 28.9498877 11.81274414 28.92407227 C8.562465 28.80848698 5.31250312 28.68559226 2.0625 28.5625 C0.92619141 28.52318359 -0.21011719 28.48386719 -1.38085938 28.44335938 C-3.00024414 28.38051758 -3.00024414 28.38051758 -4.65234375 28.31640625 C-5.65257568 28.27974854 -6.65280762 28.24309082 -7.68334961 28.20532227 C-10 28 -10 28 -11 27 C-11 25.35 -11 23.7 -11 22 C-5.72 21.67 -0.44 21.34 5 21 C1.04 19.35 -2.92 17.7 -7 16 C-6.67 14.02 -6.34 12.04 -6 10 C-1.79568804 10.60061599 1.97935101 11.65978367 6 13 C6.99 13 7.98 13 9 13 C6.81482901 10.59424393 4.74080329 9.20464419 1.8125 7.8125 C1.09707031 7.46832031 0.38164063 7.12414062 -0.35546875 6.76953125 C-1.16951172 6.38861328 -1.16951172 6.38861328 -2 6 C-1.34 4.02 -0.68 2.04 0 0 Z " fill="#000000" transform="translate(102,82)"/>
<path d="M0 0 C0 5.28 0 10.56 0 16 C-1.65 16.33 -3.3 16.66 -5 17 C-5.33 18.65 -5.66 20.3 -6 22 C-4.02 22 -2.04 22 0 22 C0 27.28 0 32.56 0 38 C-1.98 38 -3.96 38 -6 38 C-6 42.62 -6 47.24 -6 52 C-10.95 52 -15.9 52 -21 52 C-21.14928763 46.6107166 -21.257654 41.22265897 -21.32958984 35.83178711 C-21.35960256 34.00149548 -21.40042728 32.17134573 -21.45263672 30.34155273 C-21.96280367 11.99054732 -21.96280367 11.99054732 -16.62890625 5.51367188 C-11.14109435 0.41408648 -7.97899618 0 0 0 Z " fill="#000000" transform="translate(355,18)"/>
<path d="M0 0 C4.95 0 9.9 0 15 0 C15 4.95 15 9.9 15 15 C16.98 15 18.96 15 21 15 C21 19.95 21 24.9 21 30 C19.02 30 17.04 30 15 30 C15.10613836 32.45224694 15.10613836 32.45224694 16 35 C17.65 35.66 19.3 36.32 21 37 C21 42.28 21 47.56 21 53 C14.17103674 51.97097814 8.964432 50.97875964 4 46 C0.22417254 40.46122406 -0.56254442 35.48413852 -0.390625 28.90625 C-0.38496521 28.07411987 -0.37930542 27.24198975 -0.37347412 26.38464355 C-0.35128184 23.7558159 -0.30112133 21.12840783 -0.25 18.5 C-0.22991268 16.70574901 -0.21166584 14.91147641 -0.1953125 13.1171875 C-0.15147383 8.74425398 -0.08256939 4.37236672 0 0 Z " fill="#000000" transform="translate(91,18)"/>
<path d="M0 0 C0 5.28 0 10.56 0 16 C-1.65 16 -3.3 16 -5 16 C-5.09474609 17.16015625 -5.09474609 17.16015625 -5.19140625 18.34375 C-6.10863683 26.14503744 -7.90752099 30.90738078 -14 36 C-18.35270465 38.74907662 -22.99639501 38.14936134 -28 38 C-28 32.72 -28 27.44 -28 22 C-26.35 21.67 -24.7 21.34 -23 21 C-21.71184716 18.42369433 -21.64355252 16.11200247 -21.3125 13.25 C-20.3473796 7.15950537 -18.89154 4.69361183 -14 1 C-9.36297289 -0.5456757 -4.87528349 -0.05735628 0 0 Z " fill="#000000" transform="translate(212,33)"/>
<path d="M0 0 C5.28 0 10.56 0 16 0 C16 12.54 16 25.08 16 38 C10.72 38 5.44 38 0 38 C0 25.46 0 12.92 0 0 Z " fill="#000000" transform="translate(70,32)"/>
<path d="M0 0 C1.98 0 3.96 0 6 0 C6 2.31 6 4.62 6 7 C9.3 7 12.6 7 16 7 C16 8.98 16 10.96 16 13 C12.7 13 9.4 13 6 13 C6 14.65 6 16.3 6 18 C9.3 18 12.6 18 16 18 C16 19.65 16 21.3 16 23 C12.7 23 9.4 23 6 23 C6 24.98 6 26.96 6 29 C9.63 29 13.26 29 17 29 C17 30.98 17 32.96 17 35 C13.37 35 9.74 35 6 35 C6 38.96 6 42.92 6 47 C4.02 47 2.04 47 0 47 C0 31.49 0 15.98 0 0 Z " fill="#000000" transform="translate(256,82)"/>
<path d="M0 0 C3.14712898 0.27418169 4.217958 0.82826454 7 2.625 C9.68773424 6.74059306 9.92788829 9.90063705 9 14.6875 C7.375 17.6875 7.375 17.6875 5 19.6875 C1.75 20.5 1.75 20.5 -1 20.6875 C-1.33 20.0275 -1.66 19.3675 -2 18.6875 C-2.804375 18.213125 -3.60875 17.73875 -4.4375 17.25 C-7 15.6875 -7 15.6875 -9 12.6875 C-9.64039015 8.5707062 -9.14740698 6.93624927 -7 3.3125 C-3.47775176 0.23053279 -3.47775176 0.23053279 0 0 Z " fill="#000000" transform="translate(170,17.3125)"/>
<path d="M0 0 C2.5625 2.125 2.5625 2.125 4 5 C4 8.52397438 3.68152223 10.24275308 1.3125 12.875 C-1.70753221 14.34420486 -3.67631657 14.41546043 -7 14 C-9.375 13 -9.375 13 -11 11 C-11.65964122 7.44238446 -11.63041883 4.26083766 -10 1 C-6.72212436 -0.63893782 -3.51817423 -0.74884833 0 0 Z " fill="#000000" transform="translate(82,16)"/>
<path d="M0 0 C4.79844944 0.60212203 8.45902056 2.6388883 12.625 4.9375 C13.29273438 5.29779297 13.96046875 5.65808594 14.6484375 6.02929688 C17.5169458 7.58689688 20.28257738 9.18838492 23 11 C22.6875 12.875 22.6875 12.875 22 15 C21.01 15.66 20.02 16.32 19 17 C18.05898437 16.45730469 17.11796875 15.91460937 16.1484375 15.35546875 C14.89067537 14.63272484 13.63286003 13.91007352 12.375 13.1875 C11.75753906 12.83107422 11.14007813 12.47464844 10.50390625 12.10742188 C6.72734494 9.94086828 2.91552228 7.9095701 -1 6 C-0.67 4.02 -0.34 2.04 0 0 Z " fill="#000000" transform="translate(124,112)"/>
<path d="M0 0 C8.36467461 2.46826464 15.74244436 6.16162957 23 11 C21.25 15.875 21.25 15.875 19 17 C16.67495433 15.8195922 14.47770407 14.59398676 12.25 13.25 C11.02697033 12.52447392 9.80301932 11.80049857 8.578125 11.078125 C7.98322266 10.72685547 7.38832031 10.37558594 6.77539062 10.01367188 C4.23762049 8.56471401 1.62891098 7.27413477 -1 6 C-0.67 4.02 -0.34 2.04 0 0 Z " fill="#000000" transform="translate(62,112)"/>
</svg>
