<?xml version="1.0" encoding="UTF-8"?>
<svg version="1.1" xmlns="http://www.w3.org/2000/svg" width="800" height="200">
<path d="M0 0 C8.32728947 -0.02312684 16.65456563 -0.04091683 24.98187923 -0.05181217 C28.84820118 -0.05704026 32.71450121 -0.06413654 36.58081055 -0.07543945 C40.30903401 -0.086271 44.03723634 -0.0922774 47.76547432 -0.09487724 C49.19089656 -0.09673101 50.61631759 -0.10035071 52.04173088 -0.10573006 C54.03163408 -0.11294393 56.02155834 -0.11340808 58.01147461 -0.11352539 C59.14620712 -0.115746 60.28093964 -0.11796661 61.45005798 -0.12025452 C64 0 64 0 65 1 C65.07429825 2.33142464 65.08333333 3.66666667 65.0625 5 C65.05476563 5.804375 65.04703125 6.60875 65.0390625 7.4375 C65.01302083 9.14583333 64.98697917 10.85416667 64.9609375 12.5625 C64.95320313 13.366875 64.94546875 14.17125 64.9375 15 C64.92589844 15.7425 64.91429687 16.485 64.90234375 17.25 C64.80657225 19.02877578 64.80657225 19.02877578 66 20 C66.14115161 22.67058851 66.04247107 25.32432238 66 28 C62.04 28.495 62.04 28.495 58 29 C60.31 30.98 62.62 32.96 65 35 C64.34 36.32 63.68 37.64 63 39 C62.67 41.97 62.34 44.94 62 48 C55.07 48 48.14 48 41 48 C41 48.99 41 49.98 41 51 C49.91 51 58.82 51 68 51 C68 53.64 68 56.28 68 59 C47.54 59 27.08 59 6 59 C6 56.36 6 53.72 6 51 C14.91 51 23.82 51 33 51 C33 50.01 33 49.02 33 48 C32.39937744 48.00523682 31.79875488 48.01047363 31.17993164 48.01586914 C28.47413162 48.03658014 25.76834823 48.04964125 23.0625 48.0625 C22.11697266 48.07087891 21.17144531 48.07925781 20.19726562 48.08789062 C18.84858398 48.09272461 18.84858398 48.09272461 17.47265625 48.09765625 C16.22367554 48.10551147 16.22367554 48.10551147 14.94946289 48.11352539 C13 48 13 48 12 47 C11.875 44 11.875 44 12 41 C13 40 13 40 14.94946289 39.88647461 C15.7821167 39.89171143 16.61477051 39.89694824 17.47265625 39.90234375 C18.37177734 39.90556641 19.27089844 39.90878906 20.19726562 39.91210938 C21.61555664 39.92467773 21.61555664 39.92467773 23.0625 39.9375 C24.01189453 39.94201172 24.96128906 39.94652344 25.93945312 39.95117188 C28.29303065 39.9629989 30.64648477 39.97947975 33 40 C33 39.34 33 38.68 33 38 C23.1 38.495 23.1 38.495 13 39 C12.34 37.02 11.68 35.04 11 33 C12.98 31.68 14.96 30.36 17 29 C14.03 28.67 11.06 28.34 8 28 C7.96261719 28.82242188 7.92523438 29.64484375 7.88671875 30.4921875 C7.19563091 42.22713007 5.07224919 50.52455933 -2 60 C-4.41796875 59.66015625 -4.41796875 59.66015625 -7 59 C-8.3125 56.4375 -8.3125 56.4375 -9 54 C-8.401875 53.360625 -7.80375 52.72125 -7.1875 52.0625 C-1.35406588 43.89569223 -0.95851494 33.95881504 -0.68359375 24.21875 C-0.64548584 22.93935547 -0.60737793 21.65996094 -0.56811523 20.34179688 C-0.52455194 18.72786525 -0.48101862 17.11393283 -0.4375 15.5 C-0.36007478 12.73500853 -0.28168535 9.97004448 -0.20336914 7.20507812 C-0.16458138 5.83142133 -0.12580764 4.45776413 -0.08705139 3.08410645 C-0.05832443 2.06635132 -0.02959747 1.04859619 0 0 Z M8 8 C8 9.32 8 10.64 8 12 C23.84 12 39.68 12 56 12 C56 10.68 56 9.36 56 8 C40.16 8 24.32 8 8 8 Z M31 28 C30.67 28.66 30.34 29.32 30 30 C34.62 30 39.24 30 44 30 C44 29.34 44 28.68 44 28 C39.71 28 35.42 28 31 28 Z M41 38 C41 38.66 41 39.32 41 40 C46.61 40 52.22 40 58 40 C56.06029948 37.61607883 56.06029948 37.61607883 52.5234375 37.8046875 C51.14049032 37.81798507 49.75761346 37.84183768 48.375 37.875 C47.66859375 37.88402344 46.9621875 37.89304688 46.234375 37.90234375 C44.48943902 37.92592397 42.74467705 37.96179539 41 38 Z " fill="#000000" transform="translate(380,110)"/>
<path d="M0 0 C8.17385591 5.39733978 13.46075778 13.28413961 15.65625 22.86328125 C15.7696875 23.56839844 15.883125 24.27351563 16 25 C12.67193308 25.42070372 9.34381645 25.73232473 6 26 C4.87207031 26.09152344 3.74414062 26.18304688 2.58203125 26.27734375 C-0.71144106 26.42992269 -3.7386614 26.4940036 -7 26 C-9.4375 23.1875 -9.4375 23.1875 -11 20 C-14.60254515 17.46184319 -16.56988912 17 -21 17 C-25.55711637 17.81190004 -27.8546046 19.6299335 -31 23 C-33.43593076 27.76595149 -33.24683261 31.92884889 -32 37 C-30.494404 40.76399 -29.33668823 41.8019481 -25.8125 43.875 C-20.27744659 45.50829445 -16.41405618 45.28749663 -11.1875 42.5 C-8.13389338 39.33531353 -8.13389338 39.33531353 -6 31 C0.93 31 7.86 31 15 31 C16.70894269 37.83577077 13.74086312 44.38269252 10.74609375 50.60546875 C6.53437877 57.57699696 0.37325328 62.45953963 -7.3046875 65.1640625 C-18.6119394 67.72193978 -29.90702519 66.95548203 -40 61 C-47.70427895 55.41266256 -52.46906886 47.98481081 -54.56640625 38.72265625 C-56.3136183 27.75142381 -54.24965201 18.16158833 -47.71875 9.1015625 C-36.23301174 -4.94236291 -16.10576324 -8.99877565 0 0 Z " fill="#000000" transform="translate(365,26)"/>
<path d="M0 0 C1.134375 0.020625 2.26875 0.04125 3.4375 0.0625 C3.4375 4.3525 3.4375 8.6425 3.4375 13.0625 C8.0575 13.0625 12.6775 13.0625 17.4375 13.0625 C17.7675 11.4125 18.0975 9.7625 18.4375 8.0625 C26.0275 8.0625 33.6175 8.0625 41.4375 8.0625 C41.4375 25.2225 41.4375 42.3825 41.4375 60.0625 C33.8475 60.0625 26.2575 60.0625 18.4375 60.0625 C17.9425 58.0825 17.9425 58.0825 17.4375 56.0625 C17.004375 56.84625 16.57125 57.63 16.125 58.4375 C14.4375 61.0625 14.4375 61.0625 11.4375 63.0625 C8.32356058 63.28615311 5.43499561 62.9282027 2.4375 62.0625 C-0.125 59.5 -0.125 59.5 -1.5625 57.0625 C-0.875 55.125 -0.875 55.125 0.4375 53.0625 C3.0625 52.3125 3.0625 52.3125 5.4375 52.0625 C5.7675 53.0525 6.0975 54.0425 6.4375 55.0625 C7.4275 55.0625 8.4175 55.0625 9.4375 55.0625 C9.4375 43.8425 9.4375 32.6225 9.4375 21.0625 C7.4575 21.0625 5.4775 21.0625 3.4375 21.0625 C3.48390625 22.21105469 3.5303125 23.35960937 3.578125 24.54296875 C3.95335818 37.75032067 2.90255902 48.81379886 -5.87890625 59.35546875 C-7.5625 61.0625 -7.5625 61.0625 -10.5625 63.0625 C-11.5525 63.0625 -12.5425 63.0625 -13.5625 63.0625 C-14.9575848 60.76471327 -15.63688619 59.5832033 -15.25 56.875 C-14.5625 55.0625 -14.5625 55.0625 -13.5625 54.0625 C-19.5025 53.7325 -25.4425 53.4025 -31.5625 53.0625 C-31.5625 36.8925 -31.5625 20.7225 -31.5625 4.0625 C-24.6325 4.0625 -17.7025 4.0625 -10.5625 4.0625 C-9.5625 5.0625 -9.5625 5.0625 -9.46484375 6.91015625 C-9.49739583 8.9609375 -9.52994792 11.01171875 -9.5625 13.0625 C-7.9125 13.0625 -6.2625 13.0625 -4.5625 13.0625 C-4.57410156 12.20785156 -4.58570313 11.35320312 -4.59765625 10.47265625 C-4.60667969 9.36792969 -4.61570313 8.26320313 -4.625 7.125 C-4.63660156 6.02285156 -4.64820313 4.92070313 -4.66015625 3.78515625 C-4.51237367 -0.33502211 -4.25789233 0.07469987 0 0 Z M-23.5625 12.0625 C-23.5625 22.9525 -23.5625 33.8425 -23.5625 45.0625 C-21.5825 45.0625 -19.6025 45.0625 -17.5625 45.0625 C-17.5625 34.1725 -17.5625 23.2825 -17.5625 12.0625 C-19.5425 12.0625 -21.5225 12.0625 -23.5625 12.0625 Z M26.4375 16.0625 C26.4375 27.9425 26.4375 39.8225 26.4375 52.0625 C28.7475 52.0625 31.0575 52.0625 33.4375 52.0625 C33.4375 40.1825 33.4375 28.3025 33.4375 16.0625 C31.1275 16.0625 28.8175 16.0625 26.4375 16.0625 Z M-9.5625 21.0625 C-9.5625 30.3025 -9.5625 39.5425 -9.5625 49.0625 C-6.93392038 47.74821019 -6.85969032 46.8197559 -5.9375 44.0625 C-3.76084053 36.55904074 -4.32035614 28.79316708 -4.5625 21.0625 C-6.2125 21.0625 -7.8625 21.0625 -9.5625 21.0625 Z " fill="#000000" transform="translate(238.5625,108.9375)"/>
<path d="M0 0 C5.77626273 3.40232447 9.38862487 7.84540296 11.49755859 14.18823242 C12.44867005 18.0452982 12.6668286 21.28321857 12.6328125 25.24609375 C12.6299826 25.90207047 12.62715271 26.55804718 12.62423706 27.23390198 C12.61315984 29.30196409 12.58808063 31.36957173 12.5625 33.4375 C12.55245402 34.85090515 12.54333102 36.26431717 12.53515625 37.67773438 C12.51497405 41.11879991 12.47580539 44.55889924 12.4375 48 C6.1675 48 -0.1025 48 -6.5625 48 C-6.61148438 46.25332031 -6.66046875 44.50664063 -6.7109375 42.70703125 C-6.78598053 40.40883852 -6.8615277 38.1106622 -6.9375 35.8125 C-6.9684375 34.66201172 -6.999375 33.51152344 -7.03125 32.32617188 C-7.08925781 30.65844727 -7.08925781 30.65844727 -7.1484375 28.95703125 C-7.1798584 27.93585205 -7.2112793 26.91467285 -7.24365234 25.86254883 C-7.57586297 22.88003004 -8.19530138 20.6674943 -9.5625 18 C-11.91122531 16.83022506 -11.91122531 16.83022506 -14.5625 17 C-17.00452118 17.85217329 -17.00452118 17.85217329 -18.5625 20 C-18.99672916 23.47383326 -19.16466895 25.8665055 -17.5 29 C-14.87498916 30.5919071 -14.87498916 30.5919071 -8.5625 29 C-8.5625 35.6 -8.5625 42.2 -8.5625 49 C-18.15203816 49.55753129 -24.93439259 48.79519511 -32.41015625 42.42578125 C-37.44455825 37.11924941 -39.63445435 30.74784181 -39.9375 23.5 C-39.63466959 16.25730608 -37.451985 9.86195503 -32.3984375 4.57421875 C-23.32941549 -3.20198523 -11.0103559 -4.88242026 0 0 Z " fill="#000000" transform="translate(424.5625,42)"/>
<path d="M0 0 C5.78128268 4.21618405 9.64051451 9.48944728 11.12109375 16.546875 C12.03279727 25.2080584 10.86319902 32.24672217 5.55859375 39.234375 C-0.17735886 45.34898463 -6.55864551 47.83725582 -14.87890625 48.171875 C-23.19916699 47.83725582 -29.58045364 45.34898463 -35.31640625 39.234375 C-40.76381422 32.04317921 -42.08594663 24.46747821 -40.87890625 15.546875 C-38.18733895 7.02955982 -33.24281604 2.2186565 -25.81640625 -2.328125 C-17.42133129 -5.4668242 -7.63467559 -4.46296307 0 0 Z M-19.00390625 16.234375 C-21.12654036 18.8522904 -21.79691767 20.18534339 -21.87890625 23.546875 C-20.88610121 26.36824681 -20.88610121 26.36824681 -18.87890625 28.546875 C-16.10484804 29.61382046 -14.56062385 29.72217381 -11.69140625 28.984375 C-8.99177135 26.84328525 -8.5329138 24.88231349 -7.87890625 21.546875 C-8.59172319 18.41048047 -9.14123023 17.04659101 -11.81640625 15.234375 C-14.99335025 14.17539367 -16.3467295 14.12426405 -19.00390625 16.234375 Z " fill="#000000" transform="translate(195.87890625,43.453125)"/>
<path d="M0 0 C16.83 0 33.66 0 51 0 C51 6.27 51 12.54 51 19 C46.05 19 41.1 19 36 19 C36 34.84 36 50.68 36 67 C29.07 67 22.14 67 15 67 C15 51.16 15 35.32 15 19 C10.05 19 5.1 19 0 19 C0 12.73 0 6.46 0 0 Z " fill="#000000" transform="translate(39,23)"/>
<path d="M0 0 C6.8708116 4.02771714 10.57521487 8.92392664 13.0546875 16.43359375 C13.66831447 19.88389981 13.5 23.43305283 13.5 26.9375 C3.93 26.9375 -5.64 26.9375 -15.5 26.9375 C-16.5 20.9375 -16.5 20.9375 -15.5 17.9375 C-12.53 17.9375 -9.56 17.9375 -6.5 17.9375 C-7.9989804 13.81575692 -7.9989804 13.81575692 -10.9375 13 C-13.52270666 12.67228416 -13.52270666 12.67228416 -15.25 14.25 C-17.44822408 17.21760251 -17.66042166 19.1623395 -17.6875 22.8125 C-17.70876953 24.10800781 -17.70876953 24.10800781 -17.73046875 25.4296875 C-17.48476168 28.10331355 -16.96300838 29.69758372 -15.5 31.9375 C-11.18266178 33.57108743 -10.07959664 32.76933866 -5.5 30.9375 C-2.2 34.8975 1.1 38.8575 4.5 42.9375 C-0.73367893 48.17117893 -5.06232116 49.16167798 -12.3125 49.4375 C-20.73823786 49.23155742 -27.08062183 46.83077808 -32.9375 40.6875 C-37.80991501 34.31057157 -39.48473685 26.84274857 -38.5 18.9375 C-36.96425888 11.33558146 -33.65269307 5.95833566 -27.37890625 1.39453125 C-18.92977128 -3.55840994 -8.94446032 -4.0546424 0 0 Z " fill="#000000" transform="translate(516.5,42.0625)"/>
<path d="M0 0 C3.5 0.125 3.5 0.125 4.5 1.125 C4.59974389 3.02784987 4.6308063 4.93438253 4.6328125 6.83984375 C4.63474609 8.58104492 4.63474609 8.58104492 4.63671875 10.35742188 C4.63285156 11.58009766 4.62898438 12.80277344 4.625 14.0625 C4.63080078 15.89071289 4.63080078 15.89071289 4.63671875 17.75585938 C4.63542969 18.91794922 4.63414062 20.08003906 4.6328125 21.27734375 C4.63168457 22.34976318 4.63055664 23.42218262 4.62939453 24.52709961 C4.5 27.125 4.5 27.125 3.5 29.125 C4.31267334 29.11976318 5.12534668 29.11452637 5.96264648 29.10913086 C9.62092322 29.08843006 13.27918767 29.07536197 16.9375 29.0625 C18.21689453 29.05412109 19.49628906 29.04574219 20.81445312 29.03710938 C22.63686523 29.03227539 22.63686523 29.03227539 24.49609375 29.02734375 C25.62200928 29.02210693 26.7479248 29.01687012 27.90795898 29.01147461 C30.5 29.125 30.5 29.125 31.5 30.125 C31.625 33.625 31.625 33.625 31.5 37.125 C30.5 38.125 30.5 38.125 27.7277832 38.20336914 C26.51437256 38.18910889 25.30096191 38.17484863 24.05078125 38.16015625 C22.71418503 38.16387209 21.37759348 38.16980397 20.04101562 38.17773438 C17.93115586 38.18826042 15.8246614 38.18772225 13.71508789 38.14916992 C5.53868572 37.73902507 5.53868572 37.73902507 -1.67236328 40.84082031 C-3.17340585 42.86935741 -4.35097054 44.88263312 -5.5 47.125 C-12.9692038 55.63862636 -24.50951765 60.1968452 -35.5 62.125 C-37.86246795 62.25196565 -40.13151041 62.22368707 -42.5 62.125 C-42.83 59.485 -43.16 56.845 -43.5 54.125 C-42.47261719 53.90585938 -41.44523437 53.68671875 -40.38671875 53.4609375 C-31.56366032 51.47820376 -24.27655456 48.88338129 -16.5 44.125 C-15.39398438 43.63386719 -15.39398438 43.63386719 -14.265625 43.1328125 C-12.14941998 42.1851766 -12.14941998 42.1851766 -11.5 39.125 C-12.43384521 39.09994385 -13.36769043 39.0748877 -14.32983398 39.04907227 C-17.78325189 38.95413072 -21.2364896 38.85488742 -24.68969727 38.75268555 C-26.18639269 38.70928187 -27.68313939 38.66761087 -29.17993164 38.62768555 C-31.32714312 38.57011384 -33.47409521 38.50638284 -35.62109375 38.44140625 C-36.9145874 38.40474854 -38.20808105 38.36809082 -39.54077148 38.33032227 C-42.5 38.125 -42.5 38.125 -43.5 37.125 C-43.625 33.625 -43.625 33.625 -43.5 30.125 C-41.95049732 28.57549732 -40.40009406 28.90844807 -38.24609375 28.80859375 C-37.39208984 28.76669922 -36.53808594 28.72480469 -35.65820312 28.68164062 C-34.31145508 28.62266602 -34.31145508 28.62266602 -32.9375 28.5625 C-31.58495117 28.49772461 -31.58495117 28.49772461 -30.20507812 28.43164062 C-27.97024844 28.32522016 -25.73514514 28.22457519 -23.5 28.125 C-28.45 25.815 -33.4 23.505 -38.5 21.125 C-37.375 15.5 -37.375 15.5 -34.5 13.125 C-33.69175781 13.4859375 -32.88351563 13.846875 -32.05078125 14.21875 C-30.44783203 14.91484375 -30.44783203 14.91484375 -28.8125 15.625 C-27.22888672 16.32109375 -27.22888672 16.32109375 -25.61328125 17.03125 C-22.64372184 18.07450801 -20.60804937 18.35565301 -17.5 18.125 C-18.21399364 14.84766203 -18.21399364 14.84766203 -21.44140625 13.51953125 C-22.63636719 12.99746094 -23.83132812 12.47539063 -25.0625 11.9375 C-26.26003906 11.40769531 -27.45757812 10.87789062 -28.69140625 10.33203125 C-29.61824219 9.93371094 -30.54507813 9.53539063 -31.5 9.125 C-30.625 3.375 -30.625 3.375 -29.5 1.125 C-24.58562025 1.66856018 -21.06090045 3.17362544 -16.75 5.5625 C-15.62078125 6.17996094 -14.4915625 6.79742187 -13.328125 7.43359375 C-10.5 9.125 -10.5 9.125 -8.5 11.125 C-8.70046627 14.26563829 -8.95122095 16.40160943 -10.875 18.9375 C-12.5 20.125 -12.5 20.125 -15.5 21.125 C-15.62375 21.888125 -15.7475 22.65125 -15.875 23.4375 C-16.5 26.125 -16.5 26.125 -18.5 29.125 C-13.88 29.125 -9.26 29.125 -4.5 29.125 C-4.51160156 27.11535156 -4.52320313 25.10570312 -4.53515625 23.03515625 C-4.5421074 21.09578576 -4.54902396 19.15641497 -4.55493164 17.21704102 C-4.55997057 15.86579614 -4.56680177 14.51455674 -4.57543945 13.16333008 C-4.58752419 11.22479566 -4.59269828 9.286222 -4.59765625 7.34765625 C-4.60289307 6.17984619 -4.60812988 5.01203613 -4.61352539 3.80883789 C-4.44208957 -0.24405228 -4.18416801 0.14943457 0 0 Z " fill="#000000" transform="translate(165.5,108.875)"/>
<path d="M0 0 C3.5 0.125 3.5 0.125 4.5 1.125 C4.59974389 3.02784987 4.6308063 4.93438253 4.6328125 6.83984375 C4.63474609 8.58104492 4.63474609 8.58104492 4.63671875 10.35742188 C4.63285156 11.58009766 4.62898438 12.80277344 4.625 14.0625 C4.63080078 15.89071289 4.63080078 15.89071289 4.63671875 17.75585938 C4.63542969 18.91794922 4.63414063 20.08003906 4.6328125 21.27734375 C4.63168457 22.34976318 4.63055664 23.42218262 4.62939453 24.52709961 C4.5 27.125 4.5 27.125 3.5 29.125 C4.31267334 29.11976318 5.12534668 29.11452637 5.96264648 29.10913086 C9.62092322 29.08843006 13.27918767 29.07536197 16.9375 29.0625 C18.21689453 29.05412109 19.49628906 29.04574219 20.81445312 29.03710938 C22.63686523 29.03227539 22.63686523 29.03227539 24.49609375 29.02734375 C25.62200928 29.02210693 26.7479248 29.01687012 27.90795898 29.01147461 C30.5 29.125 30.5 29.125 31.5 30.125 C31.625 33.625 31.625 33.625 31.5 37.125 C30.5 38.125 30.5 38.125 27.7277832 38.20336914 C26.51437256 38.18910889 25.30096191 38.17484863 24.05078125 38.16015625 C22.71418503 38.16387209 21.37759348 38.16980397 20.04101562 38.17773438 C17.93115586 38.18826042 15.8246614 38.18772225 13.71508789 38.14916992 C5.53868572 37.73902507 5.53868572 37.73902507 -1.67236328 40.84082031 C-3.17340585 42.86935741 -4.35097054 44.88263312 -5.5 47.125 C-12.9692038 55.63862636 -24.50951765 60.1968452 -35.5 62.125 C-37.86246795 62.25196565 -40.13151041 62.22368707 -42.5 62.125 C-42.83 59.485 -43.16 56.845 -43.5 54.125 C-42.47261719 53.90585938 -41.44523437 53.68671875 -40.38671875 53.4609375 C-31.56366032 51.47820376 -24.27655456 48.88338129 -16.5 44.125 C-15.39398438 43.63386719 -15.39398438 43.63386719 -14.265625 43.1328125 C-12.14941998 42.1851766 -12.14941998 42.1851766 -11.5 39.125 C-12.43384521 39.09994385 -13.36769043 39.0748877 -14.32983398 39.04907227 C-17.78325189 38.95413072 -21.2364896 38.85488742 -24.68969727 38.75268555 C-26.18639269 38.70928187 -27.68313939 38.66761087 -29.17993164 38.62768555 C-31.32714312 38.57011384 -33.47409521 38.50638284 -35.62109375 38.44140625 C-36.9145874 38.40474854 -38.20808105 38.36809082 -39.54077148 38.33032227 C-42.5 38.125 -42.5 38.125 -43.5 37.125 C-43.625 33.625 -43.625 33.625 -43.5 30.125 C-41.95049732 28.57549732 -40.40009406 28.90844807 -38.24609375 28.80859375 C-37.39208984 28.76669922 -36.53808594 28.72480469 -35.65820312 28.68164062 C-34.31145508 28.62266602 -34.31145508 28.62266602 -32.9375 28.5625 C-31.58495117 28.49772461 -31.58495117 28.49772461 -30.20507812 28.43164062 C-27.97024844 28.32522016 -25.73514514 28.22457519 -23.5 28.125 C-28.45 25.815 -33.4 23.505 -38.5 21.125 C-37.375 15.5 -37.375 15.5 -34.5 13.125 C-33.69175781 13.4859375 -32.88351563 13.846875 -32.05078125 14.21875 C-30.44783203 14.91484375 -30.44783203 14.91484375 -28.8125 15.625 C-27.22888672 16.32109375 -27.22888672 16.32109375 -25.61328125 17.03125 C-22.64372184 18.07450801 -20.60804937 18.35565301 -17.5 18.125 C-18.21399364 14.84766203 -18.21399364 14.84766203 -21.44140625 13.51953125 C-22.63636719 12.99746094 -23.83132812 12.47539063 -25.0625 11.9375 C-26.26003906 11.40769531 -27.45757812 10.87789062 -28.69140625 10.33203125 C-29.61824219 9.93371094 -30.54507813 9.53539063 -31.5 9.125 C-30.625 3.375 -30.625 3.375 -29.5 1.125 C-24.58562025 1.66856018 -21.06090045 3.17362544 -16.75 5.5625 C-15.62078125 6.17996094 -14.4915625 6.79742187 -13.328125 7.43359375 C-10.5 9.125 -10.5 9.125 -8.5 11.125 C-8.70046627 14.26563829 -8.95122095 16.40160943 -10.875 18.9375 C-12.5 20.125 -12.5 20.125 -15.5 21.125 C-15.62375 21.888125 -15.7475 22.65125 -15.875 23.4375 C-16.5 26.125 -16.5 26.125 -18.5 29.125 C-13.88 29.125 -9.26 29.125 -4.5 29.125 C-4.51160156 27.11535156 -4.52320313 25.10570312 -4.53515625 23.03515625 C-4.5421074 21.09578576 -4.54902396 19.15641497 -4.55493164 17.21704102 C-4.55997057 15.86579614 -4.56680177 14.51455674 -4.57543945 13.16333008 C-4.58752419 11.22479566 -4.59269828 9.286222 -4.59765625 7.34765625 C-4.60289307 6.17984619 -4.60812988 5.01203613 -4.61352539 3.80883789 C-4.44208957 -0.24405228 -4.18416801 0.14943457 0 0 Z " fill="#000000" transform="translate(82.5,108.875)"/>
<path d="M0 0 C6.27 0 12.54 0 19 0 C19 6.27 19 12.54 19 19 C21.64 19 24.28 19 27 19 C27 25.27 27 31.54 27 38 C24.36 38 21.72 38 19 38 C20.12697043 42.96911366 20.12697043 42.96911366 23 47 C24.65 47.33 26.3 47.66 28 48 C28 54.6 28 61.2 28 68 C17.59783774 66.90503555 10.32471768 65.32272945 3.5625 57 C0.01208913 50.18321113 -0.27175586 44.46002906 -0.1953125 36.9140625 C-0.1924826 35.85714203 -0.18965271 34.80022156 -0.18673706 33.71127319 C-0.1755785 30.34906499 -0.15048159 26.98712714 -0.125 23.625 C-0.11496462 21.33984761 -0.10583975 19.05469102 -0.09765625 16.76953125 C-0.07565327 11.17958398 -0.04115296 5.58983777 0 0 Z " fill="#000000" transform="translate(122,23)"/>
<path d="M0 0 C0 6.6 0 13.2 0 20 C-1.65 20.33 -3.3 20.66 -5 21 C-5.99 23.97 -6.98 26.94 -8 30 C-5.36 30 -2.72 30 0 30 C0 36.27 0 42.54 0 49 C-2.64 49 -5.28 49 -8 49 C-8 55.27 -8 61.54 -8 68 C-14.27 68 -20.54 68 -27 68 C-27.09942091 61.34721151 -27.17172946 54.69486252 -27.21972656 48.04150391 C-27.23975089 45.78166157 -27.26697862 43.52187045 -27.30175781 41.26220703 C-27.35068078 38.00019638 -27.37306132 34.73887513 -27.390625 31.4765625 C-27.41127014 30.47823395 -27.43191528 29.4799054 -27.45318604 28.45132446 C-27.45561741 20.72368175 -25.9785017 13.77686298 -21.10546875 7.59765625 C-13.80557921 1.75477114 -9.81949101 0 0 0 Z " fill="#000000" transform="translate(473,22)"/>
<path d="M0 0 C0 6.6 0 13.2 0 20 C-1.65 20.66 -3.3 21.32 -5 22 C-5.89076571 24.46998764 -6.4570365 26.5777124 -6.9375 29.125 C-8.68880471 36.85096577 -11.18247071 42.18229981 -17.625 46.9375 C-23.6565824 49.63583949 -29.46924345 49.07098648 -36 49 C-36 42.73 -36 36.46 -36 30 C-33.69 29.34 -31.38 28.68 -29 28 C-27.39589463 25.09733314 -27.05650813 22.36631146 -26.5546875 19.11328125 C-26.39226562 18.06527344 -26.22984375 17.01726563 -26.0625 15.9375 C-25.92972656 14.93589844 -25.79695313 13.93429688 -25.66015625 12.90234375 C-24.58807803 8.18900577 -22.85291996 5.63968997 -19 2.75 C-12.76161563 -0.88905755 -7.09471495 -0.0702447 0 0 Z " fill="#000000" transform="translate(282,42)"/>
<path d="M0 0 C6.27 0 12.54 0 19 0 C19 16.17 19 32.34 19 49 C12.73 49 6.46 49 0 49 C0 32.83 0 16.66 0 0 Z " fill="#000000" transform="translate(95,41)"/>
<path d="M0 0 C7.92 0 15.84 0 24 0 C24 15.18 24 30.36 24 46 C16.08 46 8.16 46 0 46 C0 30.82 0 15.64 0 0 Z M8 8 C8 17.9 8 27.8 8 38 C10.64 38 13.28 38 16 38 C16 28.1 16 18.2 16 8 C13.36 8 10.72 8 8 8 Z " fill="#000000" transform="translate(289,115)"/>
<path d="M0 0 C1.134375 0.020625 2.26875 0.04125 3.4375 0.0625 C3.4375 3.3625 3.4375 6.6625 3.4375 10.0625 C4.82775391 10.04509766 4.82775391 10.04509766 6.24609375 10.02734375 C7.44363281 10.01832031 8.64117187 10.00929688 9.875 10 C11.06996094 9.98839844 12.26492188 9.97679688 13.49609375 9.96484375 C16.4375 10.0625 16.4375 10.0625 17.4375 11.0625 C17.5625 14.0625 17.5625 14.0625 17.4375 17.0625 C16.4375 18.0625 16.4375 18.0625 13.49609375 18.16015625 C12.30113281 18.14855469 11.10617187 18.13695313 9.875 18.125 C8.07869141 18.11146484 8.07869141 18.11146484 6.24609375 18.09765625 C5.31925781 18.08605469 4.39242188 18.07445313 3.4375 18.0625 C3.4375 20.0425 3.4375 22.0225 3.4375 24.0625 C4.29214844 24.05089844 5.14679688 24.03929687 6.02734375 24.02734375 C7.13207031 24.01832031 8.23679687 24.00929687 9.375 24 C10.47714844 23.98839844 11.57929688 23.97679687 12.71484375 23.96484375 C15.4375 24.0625 15.4375 24.0625 16.4375 25.0625 C16.5625 28.0625 16.5625 28.0625 16.4375 31.0625 C15.4375 32.0625 15.4375 32.0625 12.71484375 32.16015625 C11.61269531 32.14855469 10.51054687 32.13695312 9.375 32.125 C7.71791016 32.11146484 7.71791016 32.11146484 6.02734375 32.09765625 C5.17269531 32.08605469 4.31804687 32.07445312 3.4375 32.0625 C3.4375 34.3725 3.4375 36.6825 3.4375 39.0625 C8.0575 39.0625 12.6775 39.0625 17.4375 39.0625 C17.4375 41.7025 17.4375 44.3425 17.4375 47.0625 C12.8175 47.0625 8.1975 47.0625 3.4375 47.0625 C3.4375 52.3425 3.4375 57.6225 3.4375 63.0625 C1.1275 63.0625 -1.1825 63.0625 -3.5625 63.0625 C-5.32973811 61.29526189 -4.69012833 58.7593116 -4.69189453 56.36523438 C-4.69504669 55.14727173 -4.69819885 53.92930908 -4.70144653 52.67443848 C-4.69965675 51.33504195 -4.6976058 49.99564576 -4.6953125 48.65625 C-4.6959856 47.2924396 -4.69695567 45.92862932 -4.69821167 44.56481934 C-4.69968838 41.70319479 -4.69753497 38.8416014 -4.69287109 35.97998047 C-4.68717381 32.30431386 -4.69045296 28.62872026 -4.69644356 24.95305634 C-4.70004991 22.13587896 -4.69891025 19.31871902 -4.69631577 16.50154114 C-4.6956467 15.14589937 -4.69647421 13.79025604 -4.69879532 12.43461609 C-4.70132301 10.54299956 -4.69679014 8.65137751 -4.69189453 6.75976562 C-4.69109894 5.68134399 -4.69030334 4.60292236 -4.68948364 3.49182129 C-4.486391 -0.39353953 -4.04720469 0.07100359 0 0 Z " fill="#000000" transform="translate(346.5625,108.9375)"/>
<path d="M0 0 C2.31 0 4.62 0 7 0 C7 20.79 7 41.58 7 63 C4.69 63 2.38 63 0 63 C-1 62 -1 62 -1.09765625 58.62109375 C-1.09098369 57.22652923 -1.07902532 55.83198257 -1.0625 54.4375 C-1.05798828 53.72658203 -1.05347656 53.01566406 -1.04882812 52.28320312 C-1.03700864 50.52209987 -1.01907263 48.76103964 -1 47 C-5.29 47 -9.58 47 -14 47 C-14 44.36 -14 41.72 -14 39 C-9.71 39 -5.42 39 -1 39 C-1 36.69 -1 34.38 -1 32 C-1.78246094 32.01160156 -2.56492187 32.02320313 -3.37109375 32.03515625 C-4.38300781 32.04417969 -5.39492188 32.05320313 -6.4375 32.0625 C-7.44683594 32.07410156 -8.45617187 32.08570313 -9.49609375 32.09765625 C-12 32 -12 32 -13 31 C-13.125 28 -13.125 28 -13 25 C-12 24 -12 24 -9.49609375 23.90234375 C-8.48675781 23.91394531 -7.47742188 23.92554688 -6.4375 23.9375 C-5.42558594 23.94652344 -4.41367187 23.95554688 -3.37109375 23.96484375 C-2.19740234 23.98224609 -2.19740234 23.98224609 -1 24 C-1 22.02 -1 20.04 -1 18 C-4.96 18 -8.92 18 -13 18 C-13 15.36 -13 12.72 -13 10 C-9.04 10 -5.08 10 -1 10 C-1.020625 8.535625 -1.04125 7.07125 -1.0625 5.5625 C-1.08392007 4.04167482 -1.07179964 2.51928038 -1 1 C-0.67 0.67 -0.34 0.34 0 0 Z " fill="#000000" transform="translate(328,109)"/>
<path d="M0 0 C3.89491057 1.65740875 5.42574396 3.13654194 7 7 C7.70439351 11.96351704 7.53310707 15.91404116 5.3125 20.4375 C2.99656981 23.00380102 1.13017715 24.55530285 -2 26 C-2.99 26 -3.98 26 -5 26 C-5 25.01 -5 24.02 -5 23 C-5.721875 22.9175 -6.44375 22.835 -7.1875 22.75 C-10.58712309 21.84343384 -12.42430315 20.36105545 -15 18 C-16.74221711 14.51556578 -16.58675154 10.80112955 -16 7 C-12.16381515 0.07196467 -7.33233785 -0.71039951 0 0 Z " fill="#000000" transform="translate(232,22)"/>
<path d="M0 0 C6.37758655 0.44694677 11.04605746 2.73388419 16.625 5.75 C17.45773438 6.18054688 18.29046875 6.61109375 19.1484375 7.0546875 C23.84450511 9.5522776 27.47802811 12.00364006 31 16 C28.375 20.875 28.375 20.875 25 22 C22.58346935 20.72735374 20.3514559 19.41095977 18.0625 17.9375 C11.54062569 13.86899034 4.94947607 10.30003054 -2 7 C-1.34 4.69 -0.68 2.38 0 0 Z " fill="#000000" transform="translate(166,150)"/>
<path d="M0 0 C6.37758655 0.44694677 11.04605746 2.73388419 16.625 5.75 C17.45773438 6.18054688 18.29046875 6.61109375 19.1484375 7.0546875 C23.84450511 9.5522776 27.47802811 12.00364006 31 16 C28.375 20.875 28.375 20.875 25 22 C22.58346935 20.72735374 20.3514559 19.41095977 18.0625 17.9375 C11.54062569 13.86899034 4.94947607 10.30003054 -2 7 C-1.34 4.69 -0.68 2.38 0 0 Z " fill="#000000" transform="translate(83,150)"/>
<path d="M0 0 C2.16015625 0.58203125 2.16015625 0.58203125 5.22265625 3.14453125 C7.47426996 7.13932977 7.97945873 9.0758676 7.16015625 13.58203125 C5.13193418 16.65707761 3.66262449 18.24784754 0 19.0625 C-4.23452468 19.32406496 -6.32609016 18.92802857 -9.90234375 16.51953125 C-12.36925488 12.77937566 -12.61263074 10.98691707 -11.83984375 6.58203125 C-8.78800733 1.16748276 -6.03037461 -0.43289834 0 0 Z " fill="#000000" transform="translate(106.83984375,18.41796875)"/>
</svg>
